<svg id="Layer_1" data-name="Layer 1" xmlns="http://www.w3.org/2000/svg" width="795" height="220" viewBox="0 0 795 220"><defs><style>.cls-1{fill:#fbd383;}</style></defs><path class="cls-1" d="M651.73,106.39a73.51,73.51,0,0,0-99.49,0,73.52,73.52,0,0,1-99.5,0,73.51,73.51,0,0,0-99.49,0c-28.7,25.85-70.8,25.85-99.5,0a73.51,73.51,0,0,0-99.49,0,73.52,73.52,0,0,1-99.5,0A74.1,74.1,0,0,0,5,87a74.1,74.1,0,0,0-49.74,19.39,74.15,74.15,0,0,1-49.75,19.39V221h796V125.78A74.15,74.15,0,0,1,651.73,106.39Z"/><path class="cls-1" d="M1447.93,106.35a73.51,73.51,0,0,0-99.49,0,73.52,73.52,0,0,1-99.5,0,73.51,73.51,0,0,0-99.49,0c-28.7,25.85-70.8,25.85-99.5,0a73.51,73.51,0,0,0-99.49,0,73.52,73.52,0,0,1-99.5,0,73.51,73.51,0,0,0-99.49,0,74.15,74.15,0,0,1-49.75,19.39V221h796V125.74A74.15,74.15,0,0,1,1447.93,106.35Z"/></svg>