<svg id="Layer_1" data-name="Layer 1" xmlns="http://www.w3.org/2000/svg" xmlns:xlink="http://www.w3.org/1999/xlink" width="795" height="220" viewBox="0 0 795 220"><defs><style>.cls-1{fill:url(#linear-gradient);}</style><linearGradient id="linear-gradient" x1="397.5" y1="86" x2="397.5" y2="220" gradientUnits="userSpaceOnUse"><stop offset="0" stop-color="#faab2b"/><stop offset="1" stop-color="#fb8b1b"/></linearGradient></defs><path class="cls-1" d="M745.73,105.39a73.51,73.51,0,0,0-99.49,0,73.52,73.52,0,0,1-99.5,0,73.51,73.51,0,0,0-99.49,0c-28.7,25.85-70.8,25.85-99.5,0a73.51,73.51,0,0,0-99.49,0,73.52,73.52,0,0,1-99.5,0,73.51,73.51,0,0,0-99.49,0A74.15,74.15,0,0,1-.48,124.78V220h796V124.78A74.15,74.15,0,0,1,745.73,105.39Z"/></svg>